<svg width="94" height="94" viewBox="0 0 94 94" fill="none" xmlns="http://www.w3.org/2000/svg">
    <g filter="url(#filter0_d)">
        <path fill-rule="evenodd" clip-rule="evenodd" d="M69.3016 34.1832C69.9397 35.8062 71.4327 37 73.1767 37C75.2883 37 77 38.7118 77 40.8233V45.1767C77 47.2882 75.2882 49 73.1767 49C71.4341 49 69.9419 50.1918 69.3046 51.8136C68.9654 52.6768 68.5783 53.5155 68.1454 54.3259C67.3885 55.743 67.5222 57.5198 68.6579 58.6563C69.9515 59.9508 69.9512 62.0488 68.6571 63.3429L67.3443 64.6558C66.0497 65.9503 63.9507 65.9499 62.6566 64.6549C61.5215 63.5191 59.7462 63.3838 58.3301 64.1409C57.5193 64.5745 56.6806 64.9622 55.8173 65.3017C54.1942 65.94 53 67.433 53 69.1771C53 71.2885 51.2885 73 49.1771 73H44.8233C42.7118 73 41 71.2883 41 69.1767C41 67.4327 39.8062 65.9398 38.1833 65.3014C37.3213 64.9624 36.4838 64.5752 35.6742 64.1424C34.2572 63.3849 32.4805 63.5195 31.3444 64.6556C30.0496 65.9504 27.9504 65.9504 26.6556 64.6556L25.3431 63.3431C24.049 62.049 24.049 59.951 25.3431 58.6569C26.4796 57.5204 26.6132 55.7425 25.8554 54.325C25.4231 53.5164 25.0365 52.6793 24.6978 51.8174C24.0599 50.1941 22.567 49 20.8229 49C18.7116 49 17 47.2885 17 45.1771L17 40.8229C17 38.7116 18.7116 37 20.8229 37C22.567 37 24.0598 35.8058 24.6974 34.1824C25.0359 33.3208 25.4223 32.4838 25.8547 31.675C26.6127 30.2575 26.4795 28.4795 25.3428 27.3428C24.0489 26.0489 24.0489 23.9511 25.3428 22.6572L26.6572 21.3428C27.9511 20.0489 30.0489 20.0489 31.3428 21.3428C32.4795 22.4795 34.2575 22.6127 35.675 21.8547C36.4838 21.4223 37.3208 21.0359 38.1824 20.6974C39.8058 20.0598 41 18.567 41 16.8229C41 14.7116 42.7116 13 44.8229 13H49.1771C51.2884 13 53 14.7116 53 16.8229C53 18.5656 54.1922 20.0578 55.8141 20.6953C56.6785 21.0351 57.5181 21.4229 58.3298 21.8566C59.7461 22.6133 61.5215 22.4779 62.6566 21.3421C63.9507 20.0471 66.0497 20.0467 67.3443 21.3413L68.6554 22.6524C69.9504 23.9474 69.9508 26.0469 68.6563 27.3424C67.5198 28.4796 67.386 30.2576 68.1438 31.6755C68.5762 32.4845 68.9629 33.3216 69.3016 34.1832ZM47 55C53.6273 55 59 49.6273 59 43C59 36.3726 53.6273 31 47 31C40.3726 31 35 36.3726 35 43C35 49.6273 40.3726 55 47 55Z" fill="#808080"/>
    </g>
    <defs>
        <filter id="filter0_d" x="0" y="0" width="94" height="94" filterUnits="userSpaceOnUse" color-interpolation-filters="sRGB">
            <feFlood flood-opacity="0" result="BackgroundImageFix"/>
            <feColorMatrix in="SourceAlpha" type="matrix" values="0 0 0 0 0 0 0 0 0 0 0 0 0 0 0 0 0 0 127 0" result="hardAlpha"/>
            <feOffset dy="4"/>
            <feGaussianBlur stdDeviation="8.5"/>
            <feComposite in2="hardAlpha" operator="out"/>
            <feColorMatrix type="matrix" values="0 0 0 0 0 0 0 0 0 0 0 0 0 0 0 0 0 0 0.25 0"/>
            <feBlend mode="normal" in2="BackgroundImageFix" result="effect1_dropShadow"/>
            <feBlend mode="normal" in="SourceGraphic" in2="effect1_dropShadow" result="shape"/>
        </filter>
    </defs>
</svg>
